<svg xmlns="http://www.w3.org/2000/svg" width="512" height="512" viewBox="0 0 512 512">
  <defs>
    <linearGradient id="bg3" x1="0" y1="0" x2="1" y2="1">
      <stop offset="0" stop-color="#f97316"/>
      <stop offset="1" stop-color="#f59e0b"/>
    </linearGradient>
  </defs>
  <rect width="512" height="512" rx="120" fill="url(#bg3)"/>
  <circle cx="256" cy="260" r="150" fill="#ffffff" opacity="0.9"/>
  <circle cx="256" cy="272" r="120" fill="#ffe7d6"/>
  <path d="M150 240c18-88 72-132 160-120 42 6 82 34 104 76-34-10-70-16-108-16-58 0-110 16-156 60z" fill="#111827"/>
  <path d="M190 250h70" stroke="#111827" stroke-width="14" stroke-linecap="round"/>
  <path d="M252 250h70" stroke="#111827" stroke-width="14" stroke-linecap="round"/>
  <circle cx="210" cy="285" r="13" fill="#111827"/>
  <circle cx="302" cy="285" r="13" fill="#111827"/>
  <path d="M224 330c12 10 24 14 32 14s20-4 32-14" fill="none" stroke="#22c55e" stroke-width="10" stroke-linecap="round"/>
  <path d="M170 410c28-34 56-48 86-48s58 14 86 48" fill="none" stroke="#ffffff" stroke-width="22" stroke-linecap="round" opacity="0.9"/>
</svg>
