<svg xmlns="http://www.w3.org/2000/svg" width="512" height="512" viewBox="0 0 512 512">
  <defs>
    <linearGradient id="bg2" x1="0" y1="0" x2="1" y2="1">
      <stop offset="0" stop-color="#06b6d4"/>
      <stop offset="1" stop-color="#8b5cf6"/>
    </linearGradient>
  </defs>
  <rect width="512" height="512" rx="120" fill="url(#bg2)"/>
  <circle cx="256" cy="265" r="145" fill="#ffffff" opacity="0.9"/>
  <circle cx="256" cy="275" r="118" fill="#ffe7d6"/>
  <path d="M150 255c10-70 56-120 106-130 60-12 124 28 150 90-32-12-64-18-96-18-68 0-122 22-160 58z" fill="#334155"/>
  <circle cx="210" cy="285" r="14" fill="#0f172a"/>
  <circle cx="302" cy="285" r="14" fill="#0f172a"/>
  <path d="M218 332c26 22 50 22 76 0" fill="none" stroke="#0ea5e9" stroke-width="10" stroke-linecap="round"/>
  <path d="M176 420c22-34 50-52 80-52s58 18 80 52" fill="none" stroke="#ffffff" stroke-width="22" stroke-linecap="round" opacity="0.9"/>
  <circle cx="190" cy="315" r="16" fill="#f59e0b" opacity="0.25"/>
  <circle cx="322" cy="315" r="16" fill="#f59e0b" opacity="0.25"/>
</svg>
