<svg xmlns="http://www.w3.org/2000/svg" width="512" height="512" viewBox="0 0 512 512">
  <defs>
    <linearGradient id="bg4" x1="0" y1="0" x2="1" y2="1">
      <stop offset="0" stop-color="#22c55e"/>
      <stop offset="1" stop-color="#06b6d4"/>
    </linearGradient>
  </defs>
  <rect width="512" height="512" rx="120" fill="url(#bg4)"/>
  <circle cx="256" cy="262" r="148" fill="#ffffff" opacity="0.9"/>
  <circle cx="256" cy="275" r="118" fill="#ffe7d6"/>
  <path d="M150 235c30-92 96-126 172-104 54 16 90 60 92 110-26-26-66-44-122-44-72 0-120 20-142 38z" fill="#0f172a"/>
  <circle cx="210" cy="285" r="14" fill="#0f172a"/>
  <circle cx="302" cy="285" r="14" fill="#0f172a"/>
  <path d="M230 332c10 10 18 14 26 14s16-4 26-14" fill="none" stroke="#f97316" stroke-width="10" stroke-linecap="round"/>
  <circle cx="190" cy="315" r="16" fill="#60a5fa" opacity="0.3"/>
  <circle cx="322" cy="315" r="16" fill="#60a5fa" opacity="0.3"/>
  <path d="M185 414c22-28 46-42 71-42s49 14 71 42" fill="none" stroke="#ffffff" stroke-width="22" stroke-linecap="round" opacity="0.9"/>
</svg>
