<svg xmlns="http://www.w3.org/2000/svg" width="512" height="512" viewBox="0 0 512 512">
  <defs>
    <linearGradient id="bg" x1="0" y1="0" x2="1" y2="1">
      <stop offset="0" stop-color="#8b5cf6"/>
      <stop offset="1" stop-color="#f59e0b"/>
    </linearGradient>
  </defs>
  <rect width="512" height="512" rx="120" fill="url(#bg)"/>
  <circle cx="256" cy="260" r="150" fill="#fff" opacity="0.9"/>
  <circle cx="256" cy="270" r="120" fill="#ffe7d6"/>
  <path d="M155 235c22-70 66-105 131-105s109 35 131 105c-26-20-66-34-131-34s-105 14-131 34z" fill="#1f2937"/>
  <circle cx="210" cy="270" r="14" fill="#111827"/>
  <circle cx="302" cy="270" r="14" fill="#111827"/>
  <path d="M228 318c18 18 38 18 56 0" fill="none" stroke="#ef4444" stroke-width="10" stroke-linecap="round"/>
  <circle cx="190" cy="305" r="18" fill="#fb7185" opacity="0.35"/>
  <circle cx="322" cy="305" r="18" fill="#fb7185" opacity="0.35"/>
  <path d="M188 410c40-38 92-38 136 0" fill="none" stroke="#ffffff" stroke-width="22" stroke-linecap="round" opacity="0.9"/>
</svg>
