<svg xmlns="http://www.w3.org/2000/svg" width="512" height="512" viewBox="0 0 512 512">
  <defs>
    <linearGradient id="bg6" x1="0" y1="0" x2="1" y2="1">
      <stop offset="0" stop-color="#0ea5e9"/>
      <stop offset="1" stop-color="#22c55e"/>
    </linearGradient>
  </defs>
  <rect width="512" height="512" rx="120" fill="url(#bg6)"/>
  <circle cx="256" cy="262" r="148" fill="#ffffff" opacity="0.9"/>
  <circle cx="256" cy="275" r="118" fill="#ffe7d6"/>
  <path d="M150 230c26-82 82-120 150-118 72 2 126 52 132 124-28-22-72-34-130-34-66 0-114 14-152 28z" fill="#0f172a"/>
  <circle cx="210" cy="285" r="14" fill="#0f172a"/>
  <circle cx="302" cy="285" r="14" fill="#0f172a"/>
  <path d="M240 330c8 10 16 14 16 14s8-4 16-14" fill="none" stroke="#f59e0b" stroke-width="10" stroke-linecap="round"/>
  <path d="M184 416c24-32 48-44 72-44s48 12 72 44" fill="none" stroke="#ffffff" stroke-width="22" stroke-linecap="round" opacity="0.9"/>
  <path d="M180 260c18-8 36-8 54 0" fill="none" stroke="#ffffff" stroke-width="10" stroke-linecap="round" opacity="0.5"/>
  <path d="M278 260c18-8 36-8 54 0" fill="none" stroke="#ffffff" stroke-width="10" stroke-linecap="round" opacity="0.5"/>
</svg>
